<?xml version="1.0" standalone="no"?>
<!DOCTYPE svg PUBLIC "-//W3C//DTD SVG 20010904//EN"
 "http://www.w3.org/TR/2001/REC-SVG-20010904/DTD/svg10.dtd">
<svg version="1.0" xmlns="http://www.w3.org/2000/svg"
 width="506.000000pt" height="715.000000pt" viewBox="0 0 506.000000 715.000000"
 preserveAspectRatio="xMidYMid meet">

<g transform="translate(0.000000,715.000000) scale(0.100000,-0.100000)"
fill="#000000" stroke="none">
<path d="M535 7140 c-251 -38 -450 -216 -510 -455 -13 -54 -15 -431 -18 -3105
-2 -2883 -1 -3049 16 -3114 28 -109 81 -201 167 -286 86 -87 163 -131 276
-160 76 -20 118 -20 2064 -20 1946 0 1988 0 2064 20 43 11 105 34 139 52 86
45 203 164 250 254 72 140 67 -134 67 3249 0 3385 6 3098 -68 3245 -69 139
-215 257 -377 306 -57 18 -160 19 -2040 20 -1089 1 -2002 -2 -2030 -6z m3970
-210 c131 -21 247 -109 304 -230 l26 -55 0 -2830 0 -2830 -31 -65 c-39 -83
-111 -155 -194 -194 l-65 -31 -580 -3 -579 -3 -426 426 -425 425 -311 2 -311
3 281 462 281 462 134 1 c112 0 132 2 122 14 -9 11 -6 15 16 19 33 6 51 -2 32
-14 -11 -7 -11 -9 1 -9 9 0 26 7 38 16 13 9 33 14 45 10 11 -3 27 0 34 6 7 6
45 11 83 13 39 1 76 7 82 13 9 9 9 12 -3 12 -7 0 1 9 19 20 18 11 41 20 51 20
81 0 391 165 383 204 -4 20 16 30 32 17 28 -23 206 86 206 125 0 7 6 11 13 8
7 -2 72 53 147 127 79 76 130 133 123 136 -22 8 -14 23 22 40 24 11 35 23 35
38 0 12 3 25 7 29 4 3 8 12 9 19 1 7 25 46 52 87 59 88 102 183 165 370 25 74
57 166 71 203 15 38 21 65 14 61 -8 -5 -9 -2 -5 9 4 11 1 17 -8 17 -19 0 -19
-1 4 51 16 36 18 56 11 114 -4 39 -8 64 -9 58 0 -7 -9 -13 -19 -13 -10 0 -29
-11 -42 -25 -13 -14 -29 -25 -37 -25 -7 0 -13 -11 -13 -24 0 -13 -9 -44 -19
-69 -11 -24 -22 -75 -26 -113 -4 -38 -11 -73 -15 -79 -4 -5 -11 -26 -15 -45
-4 -19 -31 -83 -61 -142 -30 -60 -49 -108 -43 -108 7 0 5 -8 -6 -20 -10 -11
-15 -23 -12 -27 10 -10 -44 -102 -76 -129 -17 -15 -27 -30 -23 -39 3 -8 2 -15
-3 -15 -5 0 -11 -9 -14 -20 -3 -11 -10 -20 -16 -20 -6 0 -7 7 -4 17 11 28 -14
6 -47 -42 -16 -24 -30 -50 -30 -58 0 -8 -52 -71 -115 -141 -63 -70 -115 -132
-115 -139 0 -7 -25 -27 -56 -46 -31 -18 -68 -47 -82 -63 -21 -23 -33 -29 -55
-25 -22 3 -34 -3 -57 -30 -17 -19 -30 -38 -30 -43 0 -6 -5 -10 -12 -10 -7 0
-25 -12 -40 -27 -28 -27 -29 -27 -34 -6 -5 18 -10 20 -36 12 -16 -4 -49 -20
-73 -34 -24 -14 -57 -25 -74 -25 -17 0 -31 -5 -31 -10 0 -17 24 -22 53 -11 40
16 34 -6 -8 -26 -29 -14 -41 -14 -73 -5 -52 16 -97 15 -154 -3 -27 -8 -50 -10
-53 -5 -3 6 -16 5 -32 -1 -14 -5 -28 -7 -31 -4 -3 2 -10 1 -16 -4 -10 -8 -93
-16 -121 -12 -41 6 -31 25 210 420 135 222 244 405 242 408 -3 2 -35 -14 -71
-36 -65 -40 -99 -50 -110 -32 -4 5 3 7 14 4 23 -6 26 7 8 26 -11 10 -10 15 5
25 31 23 21 67 -23 105 -43 36 -51 52 -22 45 9 -2 24 1 32 6 17 12 23 6 -68
65 -39 25 -47 35 -47 62 l-1 31 64 -59 c63 -58 81 -64 83 -31 0 14 2 13 9 -3
6 -17 9 -14 15 19 5 23 4 41 -2 45 -19 12 -32 47 -23 62 5 7 7 22 4 32 -3 11
0 17 10 17 27 0 18 14 -39 58 -56 44 -61 56 -26 65 14 3 21 -2 25 -19 4 -13
11 -24 17 -24 6 0 6 7 -1 21 -14 24 -9 32 14 23 9 -4 16 -17 16 -34 0 -34 9
-60 21 -60 4 0 6 6 3 13 -3 9 3 13 17 13 14 -1 27 10 39 31 9 18 23 39 29 47
9 11 6 22 -14 52 -20 29 -23 40 -13 42 14 3 38 74 38 114 0 12 9 32 20 43 l21
22 -22 37 c-24 41 -45 32 -28 -12 15 -39 4 -37 -43 6 -34 32 -40 43 -31 53 17
17 0 45 -37 64 -35 18 -40 51 -9 60 23 8 39 -8 39 -38 0 -10 4 -16 9 -13 5 4
12 0 14 -6 3 -8 6 -6 6 5 1 19 -40 106 -71 150 -21 29 -54 38 -44 12 4 -11 -2
-15 -20 -15 -33 0 -71 20 -56 29 8 5 7 13 -4 29 -19 27 -34 28 -34 2 0 -22
-16 -25 -54 -10 -14 5 -26 6 -26 2 0 -10 16 -34 21 -31 13 7 50 -16 55 -35 3
-12 14 -27 25 -34 16 -11 19 -9 19 8 0 17 3 18 25 8 14 -6 23 -13 20 -16 -3
-3 0 -11 6 -18 9 -10 7 -15 -4 -20 -14 -5 -14 -9 0 -42 8 -20 23 -46 32 -57
10 -11 23 -34 30 -51 15 -38 23 -114 10 -93 -7 11 -9 10 -9 -6 0 -12 5 -26 12
-33 14 -14 -14 -75 -47 -104 -11 -9 -16 -17 -11 -18 5 0 -6 -10 -25 -23 -42
-28 -79 -81 -72 -106 2 -10 -9 -46 -26 -79 -31 -61 -31 -62 -26 -184 3 -69 2
-117 -3 -110 -7 10 -11 10 -21 -2 -10 -12 -7 -15 17 -21 26 -5 29 -9 26 -42
-1 -20 4 -52 11 -70 14 -34 11 -63 -7 -63 -6 0 -5 -6 2 -15 16 -19 3 -40 -15
-25 -10 9 -13 4 -12 -22 2 -33 0 -34 -258 -189 -143 -86 -270 -160 -282 -163
-17 -6 -25 0 -44 34 -12 22 -28 40 -35 40 -18 0 -9 88 12 111 9 10 23 19 31
19 23 0 14 30 -9 31 -23 2 -23 2 1 6 19 4 22 9 17 31 -3 15 -8 43 -12 62 -4
19 -11 38 -16 41 -6 4 -4 25 4 55 13 43 12 55 -3 99 -9 29 -13 54 -8 60 14 14
11 39 -11 86 -11 26 -15 48 -10 53 5 5 -3 33 -21 68 -24 47 -35 60 -59 65 -16
3 -27 9 -25 13 10 16 -56 60 -90 60 -18 0 -35 4 -37 8 -9 22 -86 54 -174 73
-147 31 -159 33 -175 16 -8 -7 -26 -20 -39 -27 -14 -7 -20 -15 -13 -17 7 -3 9
-11 6 -19 -8 -21 -23 -17 -23 5 0 12 -9 22 -22 26 -106 31 -161 66 -196 125
-19 33 -39 54 -47 52 -18 -4 -20 14 -3 21 9 3 7 10 -7 22 -17 14 -17 16 -2 11
23 -7 21 2 -5 24 -19 15 -20 20 -10 33 17 20 5 68 -14 60 -8 -3 -14 1 -14 8 0
8 -2 78 -4 157 -4 143 -4 143 20 154 13 6 26 19 29 30 4 10 10 18 15 18 5 0
25 11 45 24 20 14 50 28 68 31 45 10 89 34 82 45 -4 6 6 7 25 4 20 -4 30 -3
30 5 0 19 26 41 47 41 11 0 73 18 138 41 78 26 148 43 200 47 69 6 80 10 78
25 -1 15 4 17 24 12 22 -5 113 20 113 32 0 2 -16 21 -35 41 -19 20 -35 42 -35
48 0 13 -135 11 -152 -3 -7 -6 -51 -16 -98 -22 -47 -7 -100 -15 -117 -17 -18
-3 -33 -10 -33 -16 0 -6 -3 -8 -7 -5 -3 4 -15 0 -25 -10 -11 -10 -38 -17 -70
-18 -35 -2 -52 -7 -50 -15 1 -6 -2 -9 -8 -5 -5 3 -10 1 -10 -4 0 -6 -5 -11
-11 -11 -6 0 -9 7 -5 15 3 8 1 15 -5 15 -12 0 -72 -30 -79 -39 -3 -4 -36 -24
-75 -45 -72 -39 -138 -93 -130 -107 3 -4 -13 -22 -35 -39 -31 -24 -44 -44 -56
-86 -8 -30 -20 -54 -25 -54 -17 0 -9 -39 13 -60 12 -11 19 -23 15 -26 -4 -4
-2 -13 4 -20 13 -16 3 -35 -15 -28 -19 7 -29 -38 -15 -72 5 -16 8 -39 4 -51
-4 -16 -1 -23 10 -23 9 0 15 9 15 26 0 14 4 23 10 19 16 -10 12 -41 -11 -80
-18 -29 -20 -43 -13 -83 4 -26 6 -54 5 -64 -1 -9 3 -19 9 -23 6 -3 8 -11 5
-16 -4 -5 -2 -9 3 -9 7 0 45 -81 47 -100 1 -16 37 -79 51 -91 16 -13 16 -12 6
8 -8 15 -9 24 -2 28 14 9 40 -13 40 -34 0 -22 26 -58 53 -73 21 -11 21 -10 7
8 -8 10 0 6 18 -9 34 -28 52 -34 52 -18 0 13 43 22 54 11 15 -15 37 -12 60 8
20 16 20 16 7 0 -12 -16 -11 -18 3 -18 9 0 16 -4 16 -9 0 -4 17 -8 38 -7 25 1
39 7 44 19 9 21 24 22 31 3 4 -10 1 -13 -9 -9 -8 3 -14 -1 -14 -11 0 -17 49
-23 64 -9 4 5 20 8 36 8 27 0 27 -1 13 -18 -15 -16 -14 -17 14 -11 23 4 32 2
37 -11 5 -14 14 -16 47 -11 35 6 40 4 36 -9 -7 -17 4 -20 20 -4 13 13 81 -31
75 -49 -5 -17 18 -15 24 3 4 8 10 12 16 9 5 -3 5 -11 -2 -19 -8 -10 -6 -15 9
-20 27 -8 16 -35 -11 -27 l-21 5 21 -21 c12 -12 25 -34 28 -49 4 -16 16 -34
26 -41 17 -13 27 -49 10 -38 -5 3 -9 -19 -10 -49 -1 -30 3 -57 8 -60 6 -3 10
-14 10 -23 0 -14 -2 -14 -9 -3 -13 21 -33 2 -27 -25 5 -17 2 -24 -8 -24 -13 0
-49 -70 -40 -79 2 -3 15 6 28 18 l23 22 5 -26 c3 -14 2 -28 -3 -31 -4 -2 -6
-11 -2 -19 3 -10 -1 -15 -11 -15 -16 0 -16 -2 0 -30 17 -27 17 -30 1 -48 -22
-24 -22 -35 2 -27 15 4 19 -1 24 -31 3 -20 18 -51 32 -70 14 -19 24 -38 21
-42 -8 -13 34 -44 50 -38 33 13 8 -6 -72 -54 -47 -29 -100 -53 -117 -55 -42
-3 -88 5 -82 16 3 4 -5 9 -17 12 l-23 4 25 10 c25 11 24 11 -13 18 -25 5 -44
17 -58 36 -11 16 -24 29 -29 29 -5 0 -34 9 -65 21 -48 18 -54 23 -43 36 11 14
9 15 -17 9 -26 -6 -36 -1 -70 34 -22 23 -54 50 -72 61 -17 11 -33 29 -35 41
-4 25 -28 37 -28 14 0 -20 -10 -20 -38 0 -18 13 -21 19 -11 30 6 8 10 16 8 17
-2 2 -25 16 -52 31 -26 15 -47 29 -47 32 0 3 5 2 12 -2 8 -5 9 -2 5 10 -7 19
-7 19 41 -1 6 -3 12 2 12 11 0 10 -8 16 -21 16 -13 0 -40 20 -67 50 -25 27
-51 50 -59 50 -7 0 -13 9 -13 19 0 13 -11 23 -35 31 -37 12 -58 39 -49 63 3 8
-2 17 -10 20 -8 3 -25 29 -37 57 -12 28 -32 59 -45 69 -19 15 -21 20 -9 25 21
8 19 33 -5 63 -21 27 -27 48 -10 38 17 -10 22 19 12 71 l-9 49 -12 -43 c-12
-41 -31 -49 -31 -13 0 10 -3 21 -6 24 -12 12 -12 72 -1 79 8 5 4 15 -11 31
-23 24 -29 61 -12 72 5 3 10 13 10 21 0 11 -6 13 -20 9 -17 -5 -20 -2 -21 27
0 18 -8 58 -18 88 -10 30 -15 56 -10 58 13 5 -1 52 -22 73 -23 23 -23 34 -4
90 9 24 14 52 12 61 -3 9 0 19 6 21 8 2 7 22 -4 68 -15 61 -14 66 5 107 17 35
18 45 7 51 -11 7 -9 13 8 30 11 11 19 21 16 21 -3 0 4 18 15 41 19 37 20 47
10 114 -6 41 -8 94 -5 118 6 39 9 43 30 39 19 -3 22 -8 15 -21 -17 -29 -29
-110 -16 -108 15 3 24 26 25 60 1 15 9 35 20 46 11 11 17 28 14 42 -2 13 3 42
12 64 11 30 14 33 12 13 -3 -16 -1 -28 3 -28 13 0 20 29 14 59 -6 31 -1 41 47
89 32 32 113 157 124 190 5 19 9 21 21 11 12 -10 14 2 14 75 0 47 3 86 6 86
20 0 64 -44 64 -65 0 -22 -2 -24 -26 -14 -15 5 -28 8 -30 6 -2 -2 2 -21 10
-43 8 -21 15 -32 15 -24 1 8 22 35 47 59 44 44 45 45 23 56 -21 12 -20 13 22
27 42 14 44 16 41 49 l-4 34 20 -25 20 -24 7 33 c6 29 10 32 31 27 39 -10 82
28 114 99 33 74 46 85 66 56 21 -29 42 -26 50 7 23 104 60 172 94 172 9 0 23
7 30 15 7 9 15 14 17 11 3 -2 -18 -42 -46 -88 -68 -114 -71 -122 -38 -116 22
4 25 3 16 -8 -15 -18 -10 -17 36 2 43 18 51 14 35 -15 -9 -17 -8 -22 4 -27 14
-5 11 -32 -4 -44 -4 -3 -4 -32 0 -65 4 -34 3 -68 -2 -78 -5 -10 -8 -20 -6 -21
2 -1 19 -9 39 -18 30 -13 36 -21 36 -47 0 -35 -26 -44 -34 -11 -3 11 -9 20
-15 20 -5 0 -4 -9 2 -20 10 -18 8 -20 -21 -20 -31 0 -31 0 -25 40 5 31 3 42
-9 46 -14 6 -74 -25 -105 -53 -8 -8 -23 -20 -33 -27 -18 -11 -18 -15 -3 -66
19 -65 20 -70 2 -70 -7 0 -25 -18 -40 -40 -30 -45 -75 -73 -114 -69 -15 2 -33
-1 -41 -5 -9 -6 -12 -5 -7 2 3 6 2 13 -3 17 -10 5 -81 -80 -81 -96 0 -17 14
-9 53 29 l40 37 -6 -30 c-9 -48 -46 -127 -57 -120 -11 7 -25 -39 -16 -53 3 -5
19 -7 36 -4 25 4 30 1 30 -17 0 -29 -25 -37 -55 -17 -14 9 -25 13 -26 9 0 -5
-4 1 -8 11 -5 14 -10 16 -15 8 -4 -7 4 -23 18 -37 22 -22 34 -25 93 -25 107 1
162 19 163 54 0 4 -6 6 -14 3 -21 -8 -13 91 9 112 16 15 17 14 5 -9 -12 -22
-9 -21 27 10 51 43 59 60 31 60 -17 0 -18 2 -8 15 7 9 21 13 30 10 10 -3 28 4
41 15 21 17 22 21 9 30 -13 9 -12 12 5 26 11 8 19 23 17 34 -3 19 21 37 67 50
14 3 25 11 25 16 -1 5 17 18 39 30 l41 20 21 -29 c11 -17 36 -39 55 -49 38
-21 79 -20 238 5 45 7 88 9 95 5 27 -17 47 -9 47 20 0 25 5 29 48 40 110 30
133 55 146 162 4 30 12 60 18 67 7 9 7 22 -2 43 -7 16 -9 37 -6 46 5 14 9 14
23 3 12 -11 11 -5 -5 27 -31 61 -78 97 -116 90 -17 -4 -38 -7 -46 -7 -8 -1
-26 -12 -40 -24 -14 -13 -36 -26 -49 -30 -13 -4 -52 -33 -86 -65 -78 -73 -100
-87 -153 -99 -42 -9 -44 -8 -75 26 -18 19 -31 41 -29 49 2 10 -8 14 -33 14
-32 0 -36 2 -30 20 4 12 1 28 -7 37 -11 14 -11 15 2 11 16 -5 40 54 40 98 0
12 17 37 38 56 21 19 36 40 34 46 -2 6 16 16 40 22 24 6 59 16 79 22 20 6 42
7 48 4 7 -4 11 1 11 13 0 23 7 25 65 11 25 -6 44 -5 51 1 9 7 25 -2 55 -31 46
-44 57 -48 65 -25 8 19 24 20 24 1 0 -22 26 -27 81 -15 28 6 61 8 75 5 14 -4
24 -2 24 4 0 15 23 12 76 -12 39 -17 65 -21 132 -19 47 1 82 -2 82 -8 0 -13
57 -31 101 -31 27 0 46 -7 65 -25 15 -14 32 -25 38 -25 6 0 28 -9 49 -20 20
-11 53 -20 72 -20 19 0 35 -5 35 -10 0 -14 98 -60 128 -60 12 0 22 -4 22 -8 0
-12 177 -162 191 -162 3 0 34 -34 68 -75 47 -58 67 -75 87 -75 14 0 39 -10 56
-21 l30 -22 -7 22 c-5 17 -2 21 14 21 12 0 21 -2 21 -4 0 -2 3 -12 7 -22 4
-11 3 -15 -5 -10 -16 9 -26 -13 -12 -29 6 -7 23 -37 39 -67 15 -29 45 -84 67
-123 21 -38 60 -122 86 -185 34 -84 51 -114 62 -112 9 2 16 -1 16 -7 0 -5 3
-18 7 -28 6 -16 5 -16 -10 -4 -24 19 -21 -2 3 -24 23 -21 28 -44 5 -25 -27 23
-17 -10 11 -37 20 -18 25 -31 21 -51 -8 -40 3 -84 19 -78 31 12 30 -84 0 -146
-9 -17 -16 -39 -16 -50 0 -10 -6 -18 -12 -18 -24 1 -44 25 -58 70 -8 24 -23
51 -34 60 -41 32 -68 66 -98 122 -55 103 -115 138 -213 124 -32 -5 -42 -11
-39 -21 4 -9 -6 -19 -29 -28 -25 -11 -38 -26 -50 -56 -23 -56 -22 -60 18 -105
19 -21 35 -40 35 -43 0 -2 -7 -17 -15 -33 -11 -22 -40 -41 -112 -76 -110 -52
-131 -52 -159 3 -20 39 -72 98 -61 69 4 -9 2 -16 -3 -16 -4 0 -12 15 -15 32
-4 18 -26 54 -48 80 -36 43 -60 60 -55 41 0 -5 -2 -15 -5 -23 -20 -49 -34
-101 -27 -105 4 -3 13 -27 20 -54 6 -28 22 -61 35 -75 13 -14 21 -27 19 -29
-3 -2 14 -16 36 -31 22 -14 40 -30 40 -35 0 -17 68 -41 115 -41 54 0 248 56
240 70 -3 5 5 12 17 16 45 14 117 104 131 165 l7 26 39 -38 c22 -20 51 -39 63
-41 15 -2 37 -23 62 -62 22 -32 56 -70 76 -85 21 -14 43 -38 49 -53 18 -40 65
-39 86 2 9 17 20 30 24 30 5 0 12 14 16 30 7 30 29 41 38 18 9 -24 46 76 51
137 3 33 6 67 8 75 2 8 -1 16 -7 18 -5 1 -13 -14 -16 -35 l-5 -38 -12 28 c-13
32 -16 101 -4 93 8 -5 8 -3 11 84 2 57 -12 109 -41 151 -14 19 -19 21 -27 10
-7 -11 -12 -7 -25 17 -22 43 -20 62 5 32 l20 -25 -15 38 c-25 61 -2 42 29 -25
16 -34 30 -57 32 -51 4 10 -39 113 -68 167 -7 13 -7 16 0 11 7 -3 11 2 11 14
0 11 -4 22 -9 25 -5 3 -12 22 -15 41 -4 19 -11 35 -16 35 -5 0 -7 8 -4 18 5
13 4 14 -4 3 -6 -8 -8 -20 -5 -28 3 -7 0 -13 -6 -13 -18 0 -33 41 -27 74 3 17
-1 44 -9 61 -11 24 -14 26 -15 10 l-1 -20 -9 20 c-4 11 -6 29 -3 41 3 17 -5
26 -44 45 -26 14 -49 31 -51 39 -6 23 -23 40 -42 40 -10 0 -24 7 -31 16 -12
15 -11 16 8 10 22 -7 22 -6 8 20 -8 15 -11 32 -8 37 3 6 1 7 -4 4 -6 -4 -18 4
-27 18 -9 14 -13 25 -10 25 4 0 -14 22 -40 50 -25 27 -46 54 -46 61 0 9 -4 8
-14 0 -17 -14 -44 -3 -78 31 -26 26 -14 37 15 12 35 -31 56 -42 27 -14 -15 14
-34 37 -44 53 -9 15 -23 27 -32 27 -9 0 -14 6 -11 13 2 7 -16 22 -42 34 -25
13 -42 23 -38 23 5 0 5 5 1 11 -5 8 -9 8 -14 -1 -5 -9 -13 -5 -29 11 -11 12
-21 26 -21 31 0 4 -7 8 -16 8 -22 0 -92 43 -136 83 -21 19 -40 32 -42 29 -3
-3 -12 0 -20 7 -11 9 -17 8 -29 -4 -16 -16 -58 -8 -72 14 -3 6 -17 11 -30 11
-14 0 -29 9 -35 20 -7 14 -7 20 0 20 5 0 10 5 10 10 0 6 -9 10 -19 10 -11 0
-36 9 -56 21 -34 20 -128 39 -291 59 -40 4 -81 13 -92 19 -25 13 -35 14 -28 2
3 -5 -13 -4 -36 2 -34 8 -38 12 -22 18 16 6 15 8 -8 8 -15 1 -30 -4 -34 -10
-3 -6 -14 -9 -23 -6 -9 3 -37 12 -63 20 -27 8 -46 12 -43 7 5 -9 -124 -5 -155
5 -30 9 -213 -25 -223 -42 -4 -7 -12 -13 -17 -13 -25 0 -120 -43 -120 -55 0
-14 -55 -30 -161 -45 -62 -9 -83 -18 -145 -60 -40 -28 -76 -50 -80 -50 -13 0
-99 -45 -118 -62 -24 -22 -43 -24 -26 -3 11 13 8 15 -15 15 -20 0 -25 -3 -19
-12 5 -7 9 -20 8 -28 -1 -8 -2 -21 -3 -27 0 -7 -9 -13 -20 -13 -10 0 -24 -7
-31 -15 -7 -8 -18 -15 -25 -15 -7 0 -28 -21 -46 -46 -62 -84 -100 -123 -115
-117 -10 3 -16 -4 -20 -26 -7 -34 -38 -59 -49 -40 -4 5 -18 -11 -32 -38 -14
-26 -34 -56 -44 -66 -11 -10 -19 -22 -19 -28 0 -5 -24 -33 -52 -62 -54 -53
-215 -309 -211 -336 1 -8 -7 -26 -18 -39 -10 -14 -19 -31 -19 -39 0 -8 -4 -12
-8 -9 -12 7 -52 -92 -52 -127 0 -16 -4 -26 -10 -22 -5 3 -10 1 -10 -5 0 -6 -4
-8 -10 -5 -22 14 -10 -56 14 -78 19 -18 22 -27 14 -41 -5 -9 -7 -28 -4 -41 3
-13 2 -27 -4 -30 -5 -3 -11 0 -11 7 -1 7 -7 -14 -13 -47 -8 -40 -9 -97 -5
-170 5 -60 8 -163 8 -228 0 -92 3 -117 13 -115 10 2 13 -14 13 -62 0 -36 4
-71 8 -77 10 -15 -23 -124 -35 -117 -9 6 -11 -8 -2 -30 3 -8 12 -12 19 -10 21
9 30 -18 10 -32 -17 -12 -17 -15 3 -51 11 -21 33 -63 49 -93 16 -30 36 -55 43
-55 10 0 21 -23 32 -64 19 -70 44 -112 107 -180 23 -24 41 -52 41 -62 0 -10
29 -50 65 -88 36 -37 65 -74 65 -80 0 -33 110 -147 150 -156 17 -4 28 -11 25
-15 -10 -16 69 -85 112 -99 22 -7 50 -25 61 -40 28 -39 118 -105 194 -143 l67
-33 -292 -176 -292 -176 -3 326 -2 326 -450 450 -450 450 2 1395 3 1395 26 55
c55 117 174 209 295 229 72 13 3885 13 3959 1z m-2655 -938 c0 -20 -46 -69
-56 -59 -8 8 34 77 47 77 5 0 9 -8 9 -18z m11 -130 c7 -20 6 -20 -16 -10 -26
12 -30 20 -18 32 11 11 25 2 34 -22z m49 -48 c0 -8 -4 -12 -10 -9 -5 3 -10 13
-10 21 0 8 5 12 10 9 6 -3 10 -13 10 -21z m623 -8 c25 -20 21 -26 -18 -26 -22
0 -35 5 -35 13 0 29 24 35 53 13z m-643 -17 c0 -6 -4 -7 -10 -4 -5 3 -10 11
-10 16 0 6 5 7 10 4 6 -3 10 -11 10 -16z m570 -49 c31 20 31 9 1 -25 -26 -30
-29 -39 -21 -61 10 -24 9 -24 -11 -10 -16 11 -28 12 -50 4 -16 -5 -26 -14 -23
-19 3 -5 1 -9 -3 -9 -5 0 -23 -20 -41 -45 -33 -47 -52 -57 -52 -27 0 10 -5 23
-12 30 -7 7 -10 12 -7 13 48 8 71 24 67 48 -2 10 5 17 19 19 13 2 42 26 65 53
31 37 44 46 48 35 3 -11 9 -13 20 -6z m11 -77 c13 -16 12 -17 -3 -4 -10 7 -18
15 -18 17 0 8 8 3 21 -13z m1473 -16 c15 -6 17 -10 7 -20 -16 -16 -45 3 -49
34 -2 21 -1 22 10 8 7 -8 22 -18 32 -22z m-1873 -78 c10 -19 9 -20 -13 -14
-32 10 -35 15 -18 25 19 12 18 13 31 -11z m130 -3 c-15 -8 -19 -15 -11 -18 18
-6 -11 -59 -46 -87 -31 -24 -57 -26 -99 -6 -28 12 -28 13 -7 14 33 1 60 17
114 67 26 24 53 44 60 44 7 -1 2 -7 -11 -14z m156 -132 c-3 -3 -12 -4 -19 -1
-8 3 -5 6 6 6 11 1 17 -2 13 -5z m-860 -291 c-4 -3 -2 -12 4 -19 7 -8 7 -14
-1 -19 -5 -3 -13 1 -16 9 -3 9 -13 16 -21 16 -8 0 -11 5 -8 10 3 6 16 10 27
10 12 0 18 -3 15 -7z m43 -27 c0 -3 -4 -8 -10 -11 -5 -3 -10 -1 -10 4 0 6 5
11 10 11 6 0 10 -2 10 -4z m-770 -357 c0 -5 -6 -9 -14 -9 -8 0 -13 -7 -12 -16
0 -9 -5 -19 -11 -21 -9 -3 -13 6 -13 25 0 21 6 32 18 35 20 4 32 -1 32 -14z
m40 -79 c0 -3 -5 -12 -10 -20 -11 -17 -24 -7 -34 27 -6 20 -5 21 18 10 14 -7
26 -14 26 -17z m291 -552 c12 -22 11 -22 -6 -8 -17 14 -18 13 -12 -15 l7 -30
-16 29 c-13 24 -14 30 -2 37 17 11 16 12 29 -13z m1814 -326 c6 -4 11 -11 11
-17 1 -5 5 -20 9 -32 8 -30 -9 -30 -29 -1 -26 36 -19 71 9 50z m-1974 -129
c13 -16 12 -17 -3 -4 -10 7 -18 15 -18 17 0 8 8 3 21 -13z m-31 -1313 c0 -562
0 -563 67 -700 50 -104 161 -214 266 -264 131 -63 155 -66 707 -66 l495 0 300
-300 300 -300 -1265 2 -1265 3 -67 33 c-83 40 -149 105 -191 186 l-32 61 -3
1270 -2 1270 345 -345 345 -345 0 -505z m1497 398 c-35 -57 -200 -328 -367
-602 l-304 -499 -76 -36 c-70 -34 -82 -36 -170 -36 -84 0 -102 3 -152 28 -193
95 -244 362 -96 504 30 28 1202 742 1221 743 4 0 -21 -46 -56 -102z m411 -132
c9 2 4 -2 -13 -10 -16 -8 -39 -15 -50 -15 -18 0 -17 1 5 15 24 15 24 15 -15 9
-22 -4 -37 -3 -33 1 15 14 83 20 86 7 2 -6 11 -10 20 -7z"/>
<path d="M3279 6139 c-11 -7 -10 -9 4 -10 30 -3 35 -4 43 -11 10 -10 24 -10
24 0 0 13 -57 30 -71 21z"/>
<path d="M3525 6020 c3 -5 8 -10 11 -10 2 0 4 5 4 10 0 6 -5 10 -11 10 -5 0
-7 -4 -4 -10z"/>
<path d="M1596 5831 c-20 -22 -14 -43 9 -35 7 3 21 17 30 30 14 22 14 24 -3
24 -10 0 -27 -9 -36 -19z"/>
<path d="M4006 5651 c12 -20 21 -27 25 -19 9 15 4 25 -23 39 -20 11 -20 11 -2
-20z"/>
<path d="M4095 5480 c3 -5 8 -10 11 -10 2 0 4 5 4 10 0 6 -5 10 -11 10 -5 0
-7 -4 -4 -10z"/>
<path d="M1785 5380 c-3 -5 3 -10 14 -10 12 0 21 5 21 10 0 6 -6 10 -14 10 -8
0 -18 -4 -21 -10z"/>
<path d="M1900 5350 c-12 -8 -11 -10 7 -10 12 0 25 5 28 10 8 13 -15 13 -35 0z"/>
<path d="M1925 5330 c-3 -5 -15 -10 -26 -10 -18 0 -17 -3 8 -25 33 -28 17 -34
-18 -6 -18 14 -28 16 -44 8 -11 -5 -26 -13 -33 -16 -18 -8 -15 -27 4 -23 8 2
14 -1 14 -6 0 -5 11 -7 24 -5 13 3 34 0 46 -7 32 -17 54 4 47 47 -4 22 -2 33
6 32 22 -1 112 -47 95 -48 -10 -1 -18 -8 -18 -16 0 -10 11 -15 35 -15 26 0 33
3 29 15 -8 20 -1 19 57 -11 28 -14 60 -23 72 -21 22 4 22 4 1 6 -12 0 -27 8
-34 16 -7 8 -22 15 -34 15 -11 0 -37 10 -56 22 -19 12 -44 21 -56 19 -11 -1
-32 7 -46 19 -28 21 -63 26 -73 10z"/>
<path d="M1755 5310 c-3 -6 1 -7 9 -4 18 7 21 14 7 14 -6 0 -13 -4 -16 -10z"/>
<path d="M2172 5286 c16 -8 32 -18 38 -21 5 -3 10 3 10 14 0 18 -6 21 -37 21
l-38 0 27 -14z"/>
<path d="M1710 5234 c0 -8 5 -12 10 -9 6 4 8 11 5 16 -9 14 -15 11 -15 -7z"/>
<path d="M1311 5227 c-7 -9 -11 -26 -9 -39 4 -22 5 -22 17 6 14 35 10 54 -8
33z"/>
<path d="M2288 5233 c7 -3 16 -2 19 1 4 3 -2 6 -13 5 -11 0 -14 -3 -6 -6z"/>
<path d="M1960 5216 c0 -2 7 -6 15 -10 8 -3 15 -1 15 4 0 6 -7 10 -15 10 -8 0
-15 -2 -15 -4z"/>
<path d="M1374 5196 c-10 -25 0 -38 13 -17 8 13 9 22 3 26 -6 4 -13 -1 -16 -9z"/>
<path d="M2306 5202 c-3 -6 3 -12 15 -15 12 -3 19 -1 16 6 -5 15 -24 20 -31 9z"/>
<path d="M4290 5191 c0 -11 5 -23 10 -26 6 -3 10 3 10 14 0 11 -4 23 -10 26
-5 3 -10 -3 -10 -14z"/>
<path d="M1669 5183 c-13 -17 -13 -17 6 -3 11 8 22 16 24 17 2 2 0 3 -6 3 -6
0 -17 -8 -24 -17z"/>
<path d="M2160 5185 c0 -9 44 -23 54 -18 4 3 2 9 -5 14 -15 10 -49 12 -49 4z"/>
<path d="M2420 5175 c0 -14 -8 -16 -45 -13 -44 3 -62 -6 -27 -14 25 -6 102 3
102 12 0 4 -7 13 -15 20 -12 10 -15 9 -15 -5z"/>
<path d="M1611 5129 c-13 -39 -14 -46 -2 -33 9 10 24 64 17 64 -2 0 -9 -14
-15 -31z"/>
<path d="M2340 5135 c0 -19 23 -55 35 -55 10 0 13 -5 9 -11 -4 -7 -2 -10 5 -8
7 3 12 8 11 11 -1 8 -60 69 -60 63z"/>
<path d="M2596 5105 c4 -10 0 -15 -12 -16 -12 0 -14 -3 -6 -6 7 -3 24 -2 38 1
21 6 24 9 14 21 -16 20 -41 19 -34 0z"/>
<path d="M2420 5101 c0 -18 18 -21 30 -6 10 13 9 15 -9 15 -11 0 -21 -4 -21
-9z"/>
<path d="M4330 5081 c0 -6 4 -13 10 -16 6 -3 7 1 4 9 -7 18 -14 21 -14 7z"/>
<path d="M1290 5060 c-12 -7 -12 -12 -3 -21 15 -15 26 -7 21 15 -2 11 -7 13
-18 6z"/>
<path d="M2548 5063 c7 -3 16 -2 19 1 4 3 -2 6 -13 5 -11 0 -14 -3 -6 -6z"/>
<path d="M2643 5053 c0 -7 11 -13 24 -13 13 0 22 4 18 9 -3 5 5 11 17 14 13 2
5 4 -18 3 -26 0 -41 -5 -41 -13z"/>
<path d="M2080 4971 c0 -6 5 -13 10 -16 6 -3 10 1 10 9 0 9 -4 16 -10 16 -5 0
-10 -4 -10 -9z"/>
<path d="M2783 4957 c2 -7 23 -17 48 -24 24 -7 51 -17 60 -22 17 -10 29 -5 29
11 0 4 -6 8 -13 8 -8 0 -40 8 -71 19 -35 11 -55 14 -53 8z"/>
<path d="M2045 4940 c3 -5 11 -10 16 -10 6 0 7 5 4 10 -3 6 -11 10 -16 10 -6
0 -7 -4 -4 -10z"/>
<path d="M2760 4940 c0 -12 28 -25 36 -17 3 3 -4 10 -15 17 -15 7 -21 7 -21 0z"/>
<path d="M2978 4883 c7 -3 16 -2 19 1 4 3 -2 6 -13 5 -11 0 -14 -3 -6 -6z"/>
<path d="M3240 4830 c0 -5 5 -10 10 -10 6 0 10 5 10 10 0 6 -4 10 -10 10 -5 0
-10 -4 -10 -10z"/>
<path d="M1920 4802 c0 -23 15 -37 53 -51 37 -14 34 4 -3 19 -16 7 -30 18 -30
26 0 7 -4 16 -10 19 -5 3 -10 -3 -10 -13z"/>
<path d="M2010 4770 c0 -5 5 -10 10 -10 6 0 10 5 10 10 0 6 -4 10 -10 10 -5 0
-10 -4 -10 -10z"/>
<path d="M2315 4760 c-3 -5 9 -16 26 -24 40 -20 42 -20 30 3 -11 20 -48 34
-56 21z"/>
<path d="M3276 4755 c4 -8 7 -15 9 -15 1 0 8 7 15 15 10 13 9 15 -8 15 -15 0
-20 -5 -16 -15z"/>
<path d="M2620 4750 c0 -5 5 -10 10 -10 6 0 10 5 10 10 0 6 -4 10 -10 10 -5 0
-10 -4 -10 -10z"/>
<path d="M2473 4743 c-18 -6 -16 -23 1 -23 17 0 30 16 19 23 -5 2 -14 2 -20 0z"/>
<path d="M2663 4743 c-8 -3 -13 -22 -13 -47 l0 -43 -41 11 c-22 6 -36 12 -30
14 6 2 11 10 11 18 0 21 -31 17 -37 -5 -4 -16 -10 -18 -35 -11 -21 7 -28 6
-25 -3 4 -12 32 -17 89 -17 15 0 31 -6 35 -14 10 -18 49 -25 45 -8 -1 7 5 15
13 19 14 5 14 8 -1 24 -15 17 -15 19 -1 19 8 0 17 -4 19 -9 2 -5 19 -3 38 5
33 14 34 16 17 29 -11 7 -25 11 -33 8 -8 -3 -20 -1 -27 5 -6 5 -18 7 -24 5z"/>
<path d="M3342 4720 c0 -14 2 -19 5 -12 2 6 2 18 0 25 -3 6 -5 1 -5 -13z"/>
<path d="M2296 4714 c-4 -10 -1 -14 6 -12 15 5 23 28 10 28 -5 0 -13 -7 -16
-16z"/>
<path d="M2185 4705 c-25 -12 -26 -14 -5 -9 14 4 29 10 35 15 12 12 5 11 -30
-6z"/>
<path d="M2076 4691 c-6 -10 43 -25 52 -16 3 3 0 5 -7 5 -7 0 -9 5 -6 10 3 6
-3 10 -14 10 -11 0 -22 -4 -25 -9z"/>
<path d="M2350 4691 c0 -5 -9 -11 -20 -14 -23 -6 -26 -22 -6 -30 10 -4 13 -1
10 7 -3 8 9 20 28 29 28 14 30 17 11 17 -13 0 -23 -4 -23 -9z"/>
<path d="M2165 4680 c-18 -8 -17 -9 8 -9 16 -1 26 3 22 9 -3 6 -7 10 -8 9 -1
0 -11 -4 -22 -9z"/>
<path d="M2790 4680 c0 -5 5 -10 10 -10 6 0 10 5 10 10 0 6 -4 10 -10 10 -5 0
-10 -4 -10 -10z"/>
<path d="M2390 4670 c0 -5 5 -10 10 -10 6 0 10 5 10 10 0 6 -4 10 -10 10 -5 0
-10 -4 -10 -10z"/>
<path d="M2460 4669 c0 -5 5 -7 10 -4 6 3 10 8 10 11 0 2 -4 4 -10 4 -5 0 -10
-5 -10 -11z"/>
<path d="M2830 4671 c0 -5 5 -13 10 -16 6 -3 10 -2 10 4 0 5 -4 13 -10 16 -5
3 -10 2 -10 -4z"/>
<path d="M2033 4663 c9 -2 23 -2 30 0 6 3 -1 5 -18 5 -16 0 -22 -2 -12 -5z"/>
<path d="M2750 4651 c6 -12 15 -21 20 -21 18 0 11 19 -11 30 -19 11 -20 10 -9
-9z"/>
<path d="M2135 4650 c3 -5 17 -10 31 -10 14 0 22 4 19 10 -3 6 -17 10 -31 10
-14 0 -22 -4 -19 -10z"/>
<path d="M2480 4624 c0 -17 11 -18 33 -1 16 11 15 12 -8 13 -15 1 -25 -3 -25
-12z"/>
<path d="M2690 4609 c0 -5 5 -7 10 -4 6 3 10 8 10 11 0 2 -4 4 -10 4 -5 0 -10
-5 -10 -11z"/>
<path d="M2870 4616 c0 -2 7 -9 15 -16 13 -11 14 -10 9 4 -5 14 -24 23 -24 12z"/>
<path d="M2760 4570 c0 -5 5 -10 11 -10 5 0 7 5 4 10 -3 6 -8 10 -11 10 -2 0
-4 -4 -4 -10z"/>
<path d="M2848 4493 c6 -2 18 -2 25 0 6 3 1 5 -13 5 -14 0 -19 -2 -12 -5z"/>
<path d="M3050 4440 c0 -5 5 -10 10 -10 6 0 10 5 10 10 0 6 -4 10 -10 10 -5 0
-10 -4 -10 -10z"/>
<path d="M4450 4380 c0 -5 5 -10 11 -10 5 0 7 5 4 10 -3 6 -8 10 -11 10 -2 0
-4 -4 -4 -10z"/>
<path d="M3092 4364 c1 -9 9 -19 16 -22 9 -3 13 2 10 14 -1 9 -9 19 -16 22 -9
3 -13 -2 -10 -14z"/>
<path d="M4420 4356 c0 -9 5 -16 10 -16 6 0 10 4 10 9 0 6 -4 13 -10 16 -5 3
-10 -1 -10 -9z"/>
<path d="M3036 4326 c3 -9 11 -16 16 -16 13 0 5 23 -10 28 -7 2 -10 -2 -6 -12z"/>
<path d="M910 3895 c0 -8 2 -15 4 -15 2 0 6 7 10 15 3 8 1 15 -4 15 -6 0 -10
-7 -10 -15z"/>
<path d="M1890 3660 c0 -5 5 -10 10 -10 6 0 10 5 10 10 0 6 -4 10 -10 10 -5 0
-10 -4 -10 -10z"/>
<path d="M2936 3611 c-9 -14 4 -41 20 -41 15 0 17 10 8 34 -7 18 -20 21 -28 7z"/>
<path d="M1087 3473 c-4 -3 -7 -11 -7 -17 0 -6 5 -5 12 2 6 6 9 14 7 17 -3 3
-9 2 -12 -2z"/>
<path d="M1330 3215 c1 -17 29 -49 37 -41 4 3 -3 16 -15 29 -12 12 -22 17 -22
12z"/>
<path d="M1926 3205 c-3 -8 -1 -15 3 -15 5 0 11 7 15 15 3 8 1 15 -3 15 -5 0
-11 -7 -15 -15z"/>
<path d="M2845 2490 c-3 -5 1 -10 9 -10 9 0 16 5 16 10 0 6 -4 10 -9 10 -6 0
-13 -4 -16 -10z"/>
<path d="M1390 2047 c-51 -27 -90 -90 -90 -147 0 -85 83 -170 166 -170 143 0
224 171 131 277 -58 66 -132 80 -207 40z"/>
</g>
</svg>
